<?xml version="1.0" encoding="UTF-8"?>
<svg artist="Katerina Limpitsouni" role="img" source="https://undraw.co/" viewBox="0 0 900.31 787" xmlns="http://www.w3.org/2000/svg">
<g transform="translate(-510.06 -146.5)" data-name="Group 2">
<rect transform="translate(1272.1 430.5)" width="52" height="27" fill="#f2f2f2" opacity=".998" data-name="Rectangle 34"/>
<rect transform="translate(1234.1 233.5)" width="52" height="27" fill="#f2f2f2" opacity=".998" data-name="Rectangle 36"/>
<rect transform="translate(1271.1 264.5)" width="52" height="27" fill="#f2f2f2" opacity=".998" data-name="Rectangle 37"/>
<rect transform="translate(1171.1 235.5)" width="52" height="27" fill="#f2f2f2" opacity=".998" data-name="Rectangle 38"/>
<rect transform="translate(510.06 525.5)" width="52" height="27" fill="#f2f2f2" opacity=".998" data-name="Rectangle 39"/>
<rect transform="translate(1275.1 297.5)" width="52" height="27" fill="#f2f2f2" opacity=".998" data-name="Rectangle 40"/>
<rect transform="translate(1208.1 266.5)" width="52" height="27" fill="#f2f2f2" opacity=".998" data-name="Rectangle 41"/>
<rect transform="translate(1335.1 503.5)" width="52" height="27" fill="#f2f2f2" opacity=".998" data-name="Rectangle 42"/>
<rect transform="translate(1272.1 505.5)" width="52" height="27" fill="#f2f2f2" opacity=".998" data-name="Rectangle 43"/>
<rect transform="translate(510.06 430.5)" width="52" height="27" fill="#f2f2f2" opacity=".998" data-name="Rectangle 44"/>
<rect transform="translate(547.06 461.5)" width="52" height="27" fill="#f2f2f2" opacity=".998" data-name="Rectangle 45"/>
<rect transform="translate(828.06 146.5)" width="52" height="27" fill="#f2f2f2" opacity=".998" data-name="Rectangle 46"/>
<rect transform="translate(1238.1 644.5)" width="52" height="27" fill="#f2f2f2" opacity=".998" data-name="Rectangle 47"/>
<rect transform="translate(551.06 494.5)" width="52" height="27" fill="#f2f2f2" opacity=".998" data-name="Rectangle 48"/>
<rect transform="translate(865.06 177.5)" width="52" height="27" fill="#f2f2f2" opacity=".998" data-name="Rectangle 49"/>
<rect transform="translate(675.06 360.5)" width="52" height="27" fill="#f2f2f2" opacity=".998" data-name="Rectangle 50"/>
<rect transform="translate(712.06 391.5)" width="52" height="27" fill="#f2f2f2" opacity=".998" data-name="Rectangle 51"/>
<rect transform="translate(811.06 374.5)" width="52" height="27" fill="#f2f2f2" opacity=".998" data-name="Rectangle 52"/>
<rect transform="translate(716.06 424.5)" width="52" height="27" fill="#f2f2f2" opacity=".998" data-name="Rectangle 53"/>
<rect transform="translate(1308.1 644.5)" width="52" height="27" fill="#f2f2f2" opacity=".998" data-name="Rectangle 54"/>
<path transform="translate(509.42 146.5)" d="m503.71 57.57a75.57 75.57 0 0 1 75.57 75.57v32.24h-151.14v-32.24a75.57 75.57 0 0 1 75.57-75.57z" fill="#cacaca" data-name="Path 72"/>
<ellipse transform="translate(927.52 263.26)" cx="86.14" cy="59.19" rx="86.14" ry="59.19" fill="#cacaca" data-name="Ellipse 16"/>
<path transform="translate(360 90)" d="M598.44,289.79s18,94.07,0,119.44,55,35.41,55,35.41L729,417.16l10.57-67.65s-46-25.9-36.47-78.22Z" fill="#ffb9b9" data-name="Path 73"/>
<path transform="translate(360 90)" d="m821.46 606.89s4.76 20.61-21.14 24.31a146.45 146.45 0 0 1-46.08-0.55l-5.71-51.77h60.25z" fill="#ffb9b9" data-name="Path 74"/>
<path transform="translate(360 90)" d="m364.12 580.51s-11.44 46.49 14.46 50.69 121 4.23 121 4.23v-55l-43.06 9.2-40.42-38.76z" fill="#ffb9b9" data-name="Path 75"/>
<path transform="translate(360 90)" d="m604 320.18-101.21 21.4s-38.58 1.59-63.42 52.85-78.75 197.66-78.75 197.66 46-46.51 99.89 3.17l35.94-65-7.93 103.06h278.48v-48.63s58.13 31.18 53.91 48.62c0 0 49.75-128.18 39-186.43a396.17 396.17 0 0 1-5.94-54.5 73 73 0 0 0-51.38-66.67c-5.24-1.61-11-3.12-17.4-4.47-59.72-12.68-75 0-75 0s-11.57 37.64-11.36 54.7c0.26 21.93-31.18 36.47-31.18 36.47s-46.51-11.1-48.62-20.08-18.75-61.58-15.03-72.15z" opacity=".1" data-name="Path 76"/>
<path transform="translate(360 90)" d="M604,318.07l-101.21,21.4s-38.58,1.59-63.42,52.85S360.61,590,360.61,590s46-46.51,99.89,3.17l35.94-65L488.51,631.2H767V582.58s58.13,31.18,53.91,48.62c0,0,49.75-128.18,39-186.43a396.194,396.194,0,0,1-5.94-54.5h0a73,73,0,0,0-51.38-66.67c-5.24-1.61-11-3.12-17.4-4.47-59.72-12.68-75,0-75,0s-11.57,37.64-11.36,54.7c.26,21.93-31.18,36.47-31.18,36.47s-46.51-11.1-48.62-20.08S600.28,328.64,604,318.07Z" fill="#6c63ff" data-name="Path 77"/>
<path transform="translate(360 90)" d="M707.42,313.58a71.53,71.53,0,0,1-2.76-37.52L600,294.55s1.51,7.91,3.22,19.76a71.86,71.86,0,0,0,104.18-.73Z" opacity=".1" data-name="Path 78"/>
<path transform="translate(360 90)" d="m725.27 259.67a71.875 71.875 0 1 1-143.74 1.74c0.01-0.58 0.01-1.16 0.01-1.74a71.856 71.856 0 0 1 83.93-70.87 71.82 71.82 0 0 1 59.61 66.1q0.19 2.37 0.19 4.77z" fill="#ffb9b9" data-name="Path 79"/>
<path transform="translate(360 90)" d="m628.36 192.3 0.1-0.06a71.816 71.816 0 0 0-46.93 67.43q0 0.87 0 1.74a16 16 0 0 0 6.45-1.55c17.52-8.18 28-33.2 32.16-50.65 1.5-6.21 2.91-13.28 8.22-16.91z" fill="#090814" data-name="Path 82"/>
<path transform="translate(360 90)" d="m683.37 194.32a71.279 71.279 0 0 0-17.87-5.51 23.06 23.06 0 0 1 12.83 8.06 32.859 32.859 0 0 1 3.93 7 72.07 72.07 0 0 0-60.45 1.25c4.51 9.89 18.5 15.28 27.84 18.89q15.34 5.92 31 10.83l-9.24-7.5 20.87 3.32a36.153 36.153 0 0 0-1.46-12.3c4 3.22 9.3 4.3 13.64 7 8.13 5.13 11.52 15 15.95 23.55 1.17 2.26 2.55 4.57 4.66 6a71.91 71.91 0 0 0-41.7-60.59z" fill="#090814" data-name="Path 83"/>
<path transform="translate(360 90)" d="m573.33 246.19s74-92 159.61 0l-7.4-20.61s-40.17-58.66-68.7-46-56.55 21.67-56.55 21.67z" fill="#cacaca" data-name="Path 85"/>
<path transform="translate(360 90)" d="m512.55 444.38s-15.85 42.28 6.34 80.33-19.55 53.91-19.55 53.91" opacity=".1" data-name="Path 86"/>
<path transform="translate(360 90)" d="M769.4,406.33s27.48,34.88,9.51,66.06S762,578.62,762,578.62" opacity=".1" data-name="Path 87"/>
<path transform="translate(509.42 146.5)" d="m338.82 553.3h305.47a25.37 25.37 0 0 1 25.37 25.37h-356.2a25.37 25.37 0 0 1 25.36-25.37z" fill="#090814" data-name="Path 88"/>
<path transform="translate(509.42 146.5)" d="m369.9 378.89h243.32a39 39 0 0 1 39 39v141.22h-321.32v-141.22a39 39 0 0 1 39-39z" fill="#090814" data-name="Path 89"/>
<circle transform="translate(981.68 604.4)" cx="19.03" cy="19.03" r="19.03" fill="#fff" data-name="Ellipse 17"/>
<path transform="translate(360 90)" d="m577.56 204.7s72.72-72.68 151.15-1.33" fill="none" opacity=".1" stroke="#000" stroke-miterlimit="10" data-name="Path 90"/>
<rect transform="translate(1099.8 290.07)" width="7.3" height="41.39" fill="#cacaca" data-name="Rectangle 55"/>
<path transform="translate(509.42 146.5)" d="m580.62 170.35a25.16 25.16 0 0 1 25.16 25.16v1.62a25.16 25.16 0 0 1-25.16 25.16z" fill="#6c63ff" data-name="Path 91"/>
<rect transform="translate(1085.2 314.42)" width="11.36" height="56.81" rx="5.68" fill="#090814" data-name="Rectangle 56"/>
<rect transform="translate(925.74 332.27) rotate(180)" width="7.3" height="41.39" fill="#cacaca" data-name="Rectangle 57"/>
<path transform="translate(1485.8 597.26) rotate(180)" d="m550.32 227.66a25.16 25.16 0 0 1 25.16 25.16v1.62a25.16 25.16 0 0 1-25.16 25.16z" fill="#6c63ff" data-name="Path 92"/>
<rect transform="translate(940.36 372.03) rotate(180)" width="11.36" height="56.81" rx="5.68" fill="#090814" data-name="Rectangle 58"/>
<path transform="translate(360 90)" d="M738.92,155.83c-9.89-20.56-31.43-45.42-77.86-47.41v-.06h-.56l-16.45.78v.08c-46.12,2.12-67.56,26.89-77.42,47.38A106.59,106.59,0,0,0,556.41,201l5.68-.14,5.68-.13A96.651,96.651,0,0,1,577,161.21c12.52-25.72,35.56-39.39,68.47-40.66h0l14.55-.81h0C692.95,121,716,134.69,728.51,160.4a96.652,96.652,0,0,1,9.25,39.54l5.68.13,5.68.14a106.59,106.59,0,0,0-10.2-44.38Z" fill="#6c63ff" data-name="Path 93"/>
<rect transform="translate(583.7 725.5)" width="774.71" height="208" fill="#d6d6e3" data-name="Rectangle 59"/>
<rect transform="translate(583.7 739.5)" width="774.71" height="22" opacity=".1" data-name="Rectangle 60"/>
<rect transform="translate(531.74 722.5)" width="878.63" height="27" fill="#d6d6e3" data-name="Rectangle 61"/>
</g>
</svg>
